solid ascii
  facet normal 0.000000e+000 1.000000e+000 -0.000000e+000
    outer loop
      vertex   3.000000e+001 7.300000e+001 -4.000000e+001
      vertex   2.000000e+001 7.300000e+001 -4.000000e+001
      vertex   3.000000e+001 7.300000e+001 -3.000000e+001
    endloop
  endfacet
  facet normal 0.000000e+000 7.071068e-001 0.000000e+000
    outer loop
      vertex   3.000000e+001 7.300000e+001 -3.000000e+001
      vertex   2.000000e+001 7.300000e+001 -4.000000e+001
      vertex   2.000000e+001 7.300000e+001 -3.000000e+001
    endloop
  endfacet
  facet normal -0.000000e+000 -1.000000e+000 -0.000000e+000
    outer loop
      vertex   3.000000e+001 5.300000e+001 -3.000000e+001
      vertex   2.000000e+001 5.300000e+001 -3.000000e+001
      vertex   3.000000e+001 5.300000e+001 -4.000000e+001
    endloop
  endfacet
  facet normal 0.000000e+000 -7.071068e-001 0.000000e+000
    outer loop
      vertex   3.000000e+001 5.300000e+001 -4.000000e+001
      vertex   2.000000e+001 5.300000e+001 -3.000000e+001
      vertex   2.000000e+001 5.300000e+001 -4.000000e+001
    endloop
  endfacet
  facet normal -1.000000e+000 0.000000e+000 0.000000e+000
    outer loop
      vertex   2.000000e+001 7.300000e+001 -4.000000e+001
      vertex   2.000000e+001 5.300000e+001 -4.000000e+001
      vertex   2.000000e+001 7.300000e+001 -3.000000e+001
    endloop
  endfacet
  facet normal -4.472136e-001 -0.000000e+000 0.000000e+000
    outer loop
      vertex   2.000000e+001 7.300000e+001 -3.000000e+001
      vertex   2.000000e+001 5.300000e+001 -4.000000e+001
      vertex   2.000000e+001 5.300000e+001 -3.000000e+001
    endloop
  endfacet
  facet normal 0.000000e+000 -0.000000e+000 1.000000e+000
    outer loop
      vertex   4.000000e+001 5.300000e+001 -3.000000e+001
      vertex   4.000000e+001 7.300000e+001 -3.000000e+001
      vertex   3.000000e+001 5.300000e+001 -3.000000e+001
    endloop
  endfacet
  facet normal 0.000000e+000 0.000000e+000 4.472136e-001
    outer loop
      vertex   3.000000e+001 5.300000e+001 -3.000000e+001
      vertex   4.000000e+001 7.300000e+001 -3.000000e+001
      vertex   3.000000e+001 7.300000e+001 -3.000000e+001
    endloop
  endfacet
  facet normal 0.000000e+000 -0.000000e+000 1.000000e+000
    outer loop
      vertex   3.000000e+001 5.300000e+001 -3.000000e+001
      vertex   3.000000e+001 7.300000e+001 -3.000000e+001
      vertex   2.000000e+001 5.300000e+001 -3.000000e+001
    endloop
  endfacet
  facet normal 0.000000e+000 0.000000e+000 4.472136e-001
    outer loop
      vertex   2.000000e+001 5.300000e+001 -3.000000e+001
      vertex   3.000000e+001 7.300000e+001 -3.000000e+001
      vertex   2.000000e+001 7.300000e+001 -3.000000e+001
    endloop
  endfacet
  facet normal -1.000000e+000 0.000000e+000 0.000000e+000
    outer loop
      vertex   3.000000e+001 5.300000e+001 -4.000000e+001
      vertex   3.000000e+001 4.300000e+001 -4.000000e+001
      vertex   3.000000e+001 5.300000e+001 -3.000000e+001
    endloop
  endfacet
  facet normal -1.000000e+000 -0.000000e+000 0.000000e+000
    outer loop
      vertex   3.000000e+001 5.300000e+001 -3.000000e+001
      vertex   3.000000e+001 4.300000e+001 -4.000000e+001
      vertex   3.000000e+001 4.300000e+001 -2.000000e+001
    endloop
  endfacet
  facet normal -7.071068e-001 0.000000e+000 0.000000e+000
    outer loop
      vertex   3.000000e+001 5.300000e+001 -3.000000e+001
      vertex   3.000000e+001 4.300000e+001 -2.000000e+001
      vertex   3.000000e+001 5.300000e+001 -2.000000e+001
    endloop
  endfacet
  facet normal -0.000000e+000 -1.000000e+000 -0.000000e+000
    outer loop
      vertex   3.000000e+001 5.300000e+001 4.000000e+001
      vertex   2.000000e+001 5.300000e+001 4.000000e+001
      vertex   3.000000e+001 5.300000e+001 3.000000e+001
    endloop
  endfacet
  facet normal 0.000000e+000 -7.071068e-001 0.000000e+000
    outer loop
      vertex   3.000000e+001 5.300000e+001 3.000000e+001
      vertex   2.000000e+001 5.300000e+001 4.000000e+001
      vertex   2.000000e+001 5.300000e+001 3.000000e+001
    endloop
  endfacet
  facet normal 0.000000e+000 1.000000e+000 -0.000000e+000
    outer loop
      vertex   3.000000e+001 7.300000e+001 3.000000e+001
      vertex   2.000000e+001 7.300000e+001 3.000000e+001
      vertex   3.000000e+001 7.300000e+001 4.000000e+001
    endloop
  endfacet
  facet normal 0.000000e+000 7.071068e-001 0.000000e+000
    outer loop
      vertex   3.000000e+001 7.300000e+001 4.000000e+001
      vertex   2.000000e+001 7.300000e+001 3.000000e+001
      vertex   2.000000e+001 7.300000e+001 4.000000e+001
    endloop
  endfacet
  facet normal -1.000000e+000 0.000000e+000 0.000000e+000
    outer loop
      vertex   2.000000e+001 7.300000e+001 3.000000e+001
      vertex   2.000000e+001 5.300000e+001 3.000000e+001
      vertex   2.000000e+001 7.300000e+001 4.000000e+001
    endloop
  endfacet
  facet normal -4.472136e-001 -0.000000e+000 0.000000e+000
    outer loop
      vertex   2.000000e+001 7.300000e+001 4.000000e+001
      vertex   2.000000e+001 5.300000e+001 3.000000e+001
      vertex   2.000000e+001 5.300000e+001 4.000000e+001
    endloop
  endfacet
  facet normal -1.000000e+000 0.000000e+000 0.000000e+000
    outer loop
      vertex   3.000000e+001 7.300000e+001 -4.000000e+001
      vertex   3.000000e+001 7.300000e+001 -3.000000e+001
      vertex   3.000000e+001 8.300000e+001 -4.000000e+001
    endloop
  endfacet
  facet normal -7.071068e-001 0.000000e+000 0.000000e+000
    outer loop
      vertex   3.000000e+001 8.300000e+001 -4.000000e+001
      vertex   3.000000e+001 7.300000e+001 -3.000000e+001
      vertex   3.000000e+001 8.300000e+001 -2.000000e+001
    endloop
  endfacet
  facet normal -7.071068e-001 -0.000000e+000 0.000000e+000
    outer loop
      vertex   3.000000e+001 8.300000e+001 -2.000000e+001
      vertex   3.000000e+001 7.300000e+001 -3.000000e+001
      vertex   3.000000e+001 7.300000e+001 -2.000000e+001
    endloop
  endfacet
  facet normal -8.000000e-001 0.000000e+000 0.000000e+000
    outer loop
      vertex   3.000000e+001 8.300000e+001 -2.000000e+001
      vertex   3.000000e+001 7.300000e+001 -2.000000e+001
      vertex   3.000000e+001 5.300000e+001 2.000000e+001
    endloop
  endfacet
  facet normal -8.944272e-001 -0.000000e+000 -0.000000e+000
    outer loop
      vertex   3.000000e+001 5.300000e+001 2.000000e+001
      vertex   3.000000e+001 7.300000e+001 -2.000000e+001
      vertex   3.000000e+001 4.300000e+001 2.000000e+001
    endloop
  endfacet
  facet normal -1.000000e+000 0.000000e+000 0.000000e+000
    outer loop
      vertex   3.000000e+001 5.300000e+001 2.000000e+001
      vertex   3.000000e+001 4.300000e+001 2.000000e+001
      vertex   3.000000e+001 5.300000e+001 3.000000e+001
    endloop
  endfacet
  facet normal -1.000000e+000 -0.000000e+000 0.000000e+000
    outer loop
      vertex   3.000000e+001 5.300000e+001 3.000000e+001
      vertex   3.000000e+001 4.300000e+001 2.000000e+001
      vertex   3.000000e+001 4.300000e+001 4.000000e+001
    endloop
  endfacet
  facet normal -7.071068e-001 0.000000e+000 0.000000e+000
    outer loop
      vertex   3.000000e+001 5.300000e+001 3.000000e+001
      vertex   3.000000e+001 4.300000e+001 4.000000e+001
      vertex   3.000000e+001 5.300000e+001 4.000000e+001
    endloop
  endfacet
  facet normal -1.000000e+000 0.000000e+000 0.000000e+000
    outer loop
      vertex   3.000000e+001 7.300000e+001 4.000000e+001
      vertex   3.000000e+001 8.300000e+001 4.000000e+001
      vertex   3.000000e+001 7.300000e+001 3.000000e+001
    endloop
  endfacet
  facet normal -1.000000e+000 0.000000e+000 0.000000e+000
    outer loop
      vertex   3.000000e+001 7.300000e+001 3.000000e+001
      vertex   3.000000e+001 8.300000e+001 4.000000e+001
      vertex   3.000000e+001 8.300000e+001 2.000000e+001
    endloop
  endfacet
  facet normal -7.071068e-001 0.000000e+000 0.000000e+000
    outer loop
      vertex   3.000000e+001 7.300000e+001 3.000000e+001
      vertex   3.000000e+001 8.300000e+001 2.000000e+001
      vertex   3.000000e+001 7.300000e+001 2.000000e+001
    endloop
  endfacet
  facet normal 0.000000e+000 0.000000e+000 1.000000e+000
    outer loop
      vertex   3.000000e+001 4.300000e+001 4.000000e+001
      vertex   4.000000e+001 4.300000e+001 4.000000e+001
      vertex   3.000000e+001 5.300000e+001 4.000000e+001
    endloop
  endfacet
  facet normal -0.000000e+000 0.000000e+000 7.071068e-001
    outer loop
      vertex   3.000000e+001 5.300000e+001 4.000000e+001
      vertex   4.000000e+001 4.300000e+001 4.000000e+001
      vertex   3.000000e+001 7.300000e+001 4.000000e+001
    endloop
  endfacet
  facet normal 0.000000e+000 -0.000000e+000 4.472136e-001
    outer loop
      vertex   3.000000e+001 5.300000e+001 4.000000e+001
      vertex   3.000000e+001 7.300000e+001 4.000000e+001
      vertex   2.000000e+001 7.300000e+001 4.000000e+001
    endloop
  endfacet
  facet normal 0.000000e+000 -0.000000e+000 3.162278e-001
    outer loop
      vertex   4.000000e+001 4.300000e+001 4.000000e+001
      vertex   4.000000e+001 8.300000e+001 4.000000e+001
      vertex   3.000000e+001 7.300000e+001 4.000000e+001
    endloop
  endfacet
  facet normal 0.000000e+000 0.000000e+000 7.071068e-001
    outer loop
      vertex   3.000000e+001 7.300000e+001 4.000000e+001
      vertex   4.000000e+001 8.300000e+001 4.000000e+001
      vertex   3.000000e+001 8.300000e+001 4.000000e+001
    endloop
  endfacet
  facet normal 0.000000e+000 0.000000e+000 4.472136e-001
    outer loop
      vertex   2.000000e+001 7.300000e+001 4.000000e+001
      vertex   2.000000e+001 5.300000e+001 4.000000e+001
      vertex   3.000000e+001 5.300000e+001 4.000000e+001
    endloop
  endfacet
  facet normal 0.000000e+000 0.000000e+000 1.000000e+000
    outer loop
      vertex   4.000000e+001 5.300000e+001 -2.000000e+001
      vertex   3.000000e+001 5.300000e+001 -2.000000e+001
      vertex   4.000000e+001 4.300000e+001 -2.000000e+001
    endloop
  endfacet
  facet normal 0.000000e+000 0.000000e+000 7.071068e-001
    outer loop
      vertex   4.000000e+001 4.300000e+001 -2.000000e+001
      vertex   3.000000e+001 5.300000e+001 -2.000000e+001
      vertex   3.000000e+001 4.300000e+001 -2.000000e+001
    endloop
  endfacet
  facet normal 0.000000e+000 -1.000000e+000 0.000000e+000
    outer loop
      vertex   3.000000e+001 4.300000e+001 -2.000000e+001
      vertex   3.000000e+001 4.300000e+001 -4.000000e+001
      vertex   4.000000e+001 4.300000e+001 -2.000000e+001
    endloop
  endfacet
  facet normal 0.000000e+000 -4.472136e-001 -0.000000e+000
    outer loop
      vertex   4.000000e+001 4.300000e+001 -2.000000e+001
      vertex   3.000000e+001 4.300000e+001 -4.000000e+001
      vertex   4.000000e+001 4.300000e+001 -4.000000e+001
    endloop
  endfacet
  facet normal 0.000000e+000 1.000000e+000 0.000000e+000
    outer loop
      vertex   3.000000e+001 5.300000e+001 -3.000000e+001
      vertex   3.000000e+001 5.300000e+001 -2.000000e+001
      vertex   4.000000e+001 5.300000e+001 -3.000000e+001
    endloop
  endfacet
  facet normal 0.000000e+000 7.071068e-001 -0.000000e+000
    outer loop
      vertex   4.000000e+001 5.300000e+001 -3.000000e+001
      vertex   3.000000e+001 5.300000e+001 -2.000000e+001
      vertex   4.000000e+001 5.300000e+001 -2.000000e+001
    endloop
  endfacet
  facet normal -0.000000e+000 -0.000000e+000 -1.000000e+000
    outer loop
      vertex   4.000000e+001 7.300000e+001 3.000000e+001
      vertex   4.000000e+001 5.300000e+001 3.000000e+001
      vertex   3.000000e+001 7.300000e+001 3.000000e+001
    endloop
  endfacet
  facet normal 0.000000e+000 0.000000e+000 -4.472136e-001
    outer loop
      vertex   3.000000e+001 7.300000e+001 3.000000e+001
      vertex   4.000000e+001 5.300000e+001 3.000000e+001
      vertex   3.000000e+001 5.300000e+001 3.000000e+001
    endloop
  endfacet
  facet normal -0.000000e+000 -0.000000e+000 -1.000000e+000
    outer loop
      vertex   3.000000e+001 7.300000e+001 3.000000e+001
      vertex   3.000000e+001 5.300000e+001 3.000000e+001
      vertex   2.000000e+001 7.300000e+001 3.000000e+001
    endloop
  endfacet
  facet normal 0.000000e+000 0.000000e+000 -4.472136e-001
    outer loop
      vertex   2.000000e+001 7.300000e+001 3.000000e+001
      vertex   3.000000e+001 5.300000e+001 3.000000e+001
      vertex   2.000000e+001 5.300000e+001 3.000000e+001
    endloop
  endfacet
  facet normal 0.000000e+000 -1.000000e+000 0.000000e+000
    outer loop
      vertex   4.000000e+001 4.300000e+001 2.000000e+001
      vertex   4.000000e+001 4.300000e+001 4.000000e+001
      vertex   3.000000e+001 4.300000e+001 2.000000e+001
    endloop
  endfacet
  facet normal 0.000000e+000 -4.472136e-001 0.000000e+000
    outer loop
      vertex   3.000000e+001 4.300000e+001 2.000000e+001
      vertex   4.000000e+001 4.300000e+001 4.000000e+001
      vertex   3.000000e+001 4.300000e+001 4.000000e+001
    endloop
  endfacet
  facet normal 0.000000e+000 1.000000e+000 0.000000e+000
    outer loop
      vertex   4.000000e+001 5.300000e+001 3.000000e+001
      vertex   4.000000e+001 5.300000e+001 2.000000e+001
      vertex   3.000000e+001 5.300000e+001 3.000000e+001
    endloop
  endfacet
  facet normal 0.000000e+000 7.071068e-001 0.000000e+000
    outer loop
      vertex   3.000000e+001 5.300000e+001 3.000000e+001
      vertex   4.000000e+001 5.300000e+001 2.000000e+001
      vertex   3.000000e+001 5.300000e+001 2.000000e+001
    endloop
  endfacet
  facet normal 0.000000e+000 -8.000000e-001 -6.000000e-001
    outer loop
      vertex   3.000000e+001 4.300000e+001 2.000000e+001
      vertex   3.000000e+001 7.300000e+001 -2.000000e+001
      vertex   4.000000e+001 4.300000e+001 2.000000e+001
    endloop
  endfacet
  facet normal 0.000000e+000 -1.568929e-001 -1.176697e-001
    outer loop
      vertex   4.000000e+001 4.300000e+001 2.000000e+001
      vertex   3.000000e+001 7.300000e+001 -2.000000e+001
      vertex   4.000000e+001 7.300000e+001 -2.000000e+001
    endloop
  endfacet
  facet normal 0.000000e+000 8.000000e-001 6.000000e-001
    outer loop
      vertex   4.000000e+001 5.300000e+001 2.000000e+001
      vertex   4.000000e+001 8.300000e+001 -2.000000e+001
      vertex   3.000000e+001 5.300000e+001 2.000000e+001
    endloop
  endfacet
  facet normal 0.000000e+000 1.568929e-001 1.176697e-001
    outer loop
      vertex   3.000000e+001 5.300000e+001 2.000000e+001
      vertex   4.000000e+001 8.300000e+001 -2.000000e+001
      vertex   3.000000e+001 8.300000e+001 -2.000000e+001
    endloop
  endfacet
  facet normal 0.000000e+000 -1.000000e+000 0.000000e+000
    outer loop
      vertex   4.000000e+001 7.300000e+001 -3.000000e+001
      vertex   4.000000e+001 7.300000e+001 -2.000000e+001
      vertex   3.000000e+001 7.300000e+001 -3.000000e+001
    endloop
  endfacet
  facet normal 0.000000e+000 -7.071068e-001 0.000000e+000
    outer loop
      vertex   3.000000e+001 7.300000e+001 -3.000000e+001
      vertex   4.000000e+001 7.300000e+001 -2.000000e+001
      vertex   3.000000e+001 7.300000e+001 -2.000000e+001
    endloop
  endfacet
  facet normal 0.000000e+000 1.000000e+000 0.000000e+000
    outer loop
      vertex   4.000000e+001 8.300000e+001 -2.000000e+001
      vertex   4.000000e+001 8.300000e+001 -4.000000e+001
      vertex   3.000000e+001 8.300000e+001 -2.000000e+001
    endloop
  endfacet
  facet normal 0.000000e+000 4.472136e-001 0.000000e+000
    outer loop
      vertex   3.000000e+001 8.300000e+001 -2.000000e+001
      vertex   4.000000e+001 8.300000e+001 -4.000000e+001
      vertex   3.000000e+001 8.300000e+001 -4.000000e+001
    endloop
  endfacet
  facet normal 0.000000e+000 0.000000e+000 -1.000000e+000
    outer loop
      vertex   3.000000e+001 8.300000e+001 -4.000000e+001
      vertex   4.000000e+001 8.300000e+001 -4.000000e+001
      vertex   3.000000e+001 7.300000e+001 -4.000000e+001
    endloop
  endfacet
  facet normal 0.000000e+000 0.000000e+000 -8.944272e-001
    outer loop
      vertex   3.000000e+001 7.300000e+001 -4.000000e+001
      vertex   4.000000e+001 8.300000e+001 -4.000000e+001
      vertex   4.000000e+001 4.300000e+001 -4.000000e+001
    endloop
  endfacet
  facet normal 0.000000e+000 0.000000e+000 -3.162278e-001
    outer loop
      vertex   3.000000e+001 7.300000e+001 -4.000000e+001
      vertex   4.000000e+001 4.300000e+001 -4.000000e+001
      vertex   3.000000e+001 5.300000e+001 -4.000000e+001
    endloop
  endfacet
  facet normal 0.000000e+000 0.000000e+000 -7.071068e-001
    outer loop
      vertex   3.000000e+001 5.300000e+001 -4.000000e+001
      vertex   4.000000e+001 4.300000e+001 -4.000000e+001
      vertex   3.000000e+001 4.300000e+001 -4.000000e+001
    endloop
  endfacet
  facet normal 0.000000e+000 0.000000e+000 -1.000000e+000
    outer loop
      vertex   2.000000e+001 5.300000e+001 -4.000000e+001
      vertex   2.000000e+001 7.300000e+001 -4.000000e+001
      vertex   3.000000e+001 5.300000e+001 -4.000000e+001
    endloop
  endfacet
  facet normal 0.000000e+000 0.000000e+000 -4.472136e-001
    outer loop
      vertex   3.000000e+001 5.300000e+001 -4.000000e+001
      vertex   2.000000e+001 7.300000e+001 -4.000000e+001
      vertex   3.000000e+001 7.300000e+001 -4.000000e+001
    endloop
  endfacet
  facet normal 0.000000e+000 0.000000e+000 -1.000000e+000
    outer loop
      vertex   3.000000e+001 8.300000e+001 2.000000e+001
      vertex   4.000000e+001 8.300000e+001 2.000000e+001
      vertex   3.000000e+001 7.300000e+001 2.000000e+001
    endloop
  endfacet
  facet normal 0.000000e+000 0.000000e+000 -7.071068e-001
    outer loop
      vertex   3.000000e+001 7.300000e+001 2.000000e+001
      vertex   4.000000e+001 8.300000e+001 2.000000e+001
      vertex   4.000000e+001 7.300000e+001 2.000000e+001
    endloop
  endfacet
  facet normal 0.000000e+000 -1.000000e+000 0.000000e+000
    outer loop
      vertex   3.000000e+001 7.300000e+001 3.000000e+001
      vertex   3.000000e+001 7.300000e+001 2.000000e+001
      vertex   4.000000e+001 7.300000e+001 3.000000e+001
    endloop
  endfacet
  facet normal 0.000000e+000 -7.071068e-001 -0.000000e+000
    outer loop
      vertex   4.000000e+001 7.300000e+001 3.000000e+001
      vertex   3.000000e+001 7.300000e+001 2.000000e+001
      vertex   4.000000e+001 7.300000e+001 2.000000e+001
    endloop
  endfacet
  facet normal 1.000000e+000 0.000000e+000 0.000000e+000
    outer loop
      vertex   4.000000e+001 7.300000e+001 2.000000e+001
      vertex   4.000000e+001 8.300000e+001 2.000000e+001
      vertex   4.000000e+001 7.300000e+001 3.000000e+001
    endloop
  endfacet
  facet normal 1.000000e+000 -0.000000e+000 0.000000e+000
    outer loop
      vertex   4.000000e+001 7.300000e+001 3.000000e+001
      vertex   4.000000e+001 8.300000e+001 2.000000e+001
      vertex   4.000000e+001 8.300000e+001 4.000000e+001
    endloop
  endfacet
  facet normal 8.944272e-001 0.000000e+000 -0.000000e+000
    outer loop
      vertex   4.000000e+001 7.300000e+001 3.000000e+001
      vertex   4.000000e+001 8.300000e+001 4.000000e+001
      vertex   4.000000e+001 4.300000e+001 4.000000e+001
    endloop
  endfacet
  facet normal 3.162278e-001 0.000000e+000 0.000000e+000
    outer loop
      vertex   4.000000e+001 7.300000e+001 3.000000e+001
      vertex   4.000000e+001 4.300000e+001 4.000000e+001
      vertex   4.000000e+001 5.300000e+001 3.000000e+001
    endloop
  endfacet
  facet normal 1.000000e+000 0.000000e+000 0.000000e+000
    outer loop
      vertex   4.000000e+001 5.300000e+001 3.000000e+001
      vertex   4.000000e+001 4.300000e+001 4.000000e+001
      vertex   4.000000e+001 4.300000e+001 2.000000e+001
    endloop
  endfacet
  facet normal 7.071068e-001 0.000000e+000 0.000000e+000
    outer loop
      vertex   4.000000e+001 5.300000e+001 3.000000e+001
      vertex   4.000000e+001 4.300000e+001 2.000000e+001
      vertex   4.000000e+001 5.300000e+001 2.000000e+001
    endloop
  endfacet
  facet normal 8.944272e-001 0.000000e+000 0.000000e+000
    outer loop
      vertex   4.000000e+001 5.300000e+001 2.000000e+001
      vertex   4.000000e+001 4.300000e+001 2.000000e+001
      vertex   4.000000e+001 7.300000e+001 -2.000000e+001
    endloop
  endfacet
  facet normal 1.788854e-001 0.000000e+000 0.000000e+000
    outer loop
      vertex   4.000000e+001 5.300000e+001 2.000000e+001
      vertex   4.000000e+001 7.300000e+001 -2.000000e+001
      vertex   4.000000e+001 8.300000e+001 -2.000000e+001
    endloop
  endfacet
  facet normal 7.071068e-001 0.000000e+000 0.000000e+000
    outer loop
      vertex   4.000000e+001 8.300000e+001 -2.000000e+001
      vertex   4.000000e+001 7.300000e+001 -2.000000e+001
      vertex   4.000000e+001 7.300000e+001 -3.000000e+001
    endloop
  endfacet
  facet normal 7.071068e-001 0.000000e+000 0.000000e+000
    outer loop
      vertex   4.000000e+001 8.300000e+001 -2.000000e+001
      vertex   4.000000e+001 7.300000e+001 -3.000000e+001
      vertex   4.000000e+001 8.300000e+001 -4.000000e+001
    endloop
  endfacet
  facet normal 7.071068e-001 0.000000e+000 0.000000e+000
    outer loop
      vertex   4.000000e+001 8.300000e+001 -4.000000e+001
      vertex   4.000000e+001 7.300000e+001 -3.000000e+001
      vertex   4.000000e+001 4.300000e+001 -4.000000e+001
    endloop
  endfacet
  facet normal 4.472136e-001 0.000000e+000 0.000000e+000
    outer loop
      vertex   4.000000e+001 4.300000e+001 -4.000000e+001
      vertex   4.000000e+001 7.300000e+001 -3.000000e+001
      vertex   4.000000e+001 5.300000e+001 -3.000000e+001
    endloop
  endfacet
  facet normal 7.071068e-001 0.000000e+000 0.000000e+000
    outer loop
      vertex   4.000000e+001 4.300000e+001 -4.000000e+001
      vertex   4.000000e+001 5.300000e+001 -3.000000e+001
      vertex   4.000000e+001 4.300000e+001 -2.000000e+001
    endloop
  endfacet
  facet normal 7.071068e-001 -0.000000e+000 0.000000e+000
    outer loop
      vertex   4.000000e+001 4.300000e+001 -2.000000e+001
      vertex   4.000000e+001 5.300000e+001 -3.000000e+001
      vertex   4.000000e+001 5.300000e+001 -2.000000e+001
    endloop
  endfacet
  facet normal 0.000000e+000 1.000000e+000 0.000000e+000
    outer loop
      vertex   3.000000e+001 8.300000e+001 2.000000e+001
      vertex   3.000000e+001 8.300000e+001 4.000000e+001
      vertex   4.000000e+001 8.300000e+001 2.000000e+001
    endloop
  endfacet
  facet normal 0.000000e+000 4.472136e-001 -0.000000e+000
    outer loop
      vertex   4.000000e+001 8.300000e+001 2.000000e+001
      vertex   3.000000e+001 8.300000e+001 4.000000e+001
      vertex   4.000000e+001 8.300000e+001 4.000000e+001
    endloop
  endfacet
  facet normal -0.000000e+000 1.000000e+000 0.000000e+000
    outer loop
      vertex   0.000000e+000 1.300000e+001 -3.000000e+001
      vertex   2.000000e+001 1.300000e+001 -3.000000e+001
      vertex   0.000000e+000 1.300000e+001 -4.000000e+001
    endloop
  endfacet
  facet normal 0.000000e+000 4.472136e-001 0.000000e+000
    outer loop
      vertex   0.000000e+000 1.300000e+001 -4.000000e+001
      vertex   2.000000e+001 1.300000e+001 -3.000000e+001
      vertex   2.000000e+001 1.300000e+001 -4.000000e+001
    endloop
  endfacet
  facet normal 0.000000e+000 -0.000000e+000 1.000000e+000
    outer loop
      vertex   2.000000e+001 -7.000000e+000 -3.000000e+001
      vertex   2.000000e+001 1.300000e+001 -3.000000e+001
      vertex   1.000000e+001 -7.000000e+000 -3.000000e+001
    endloop
  endfacet
  facet normal 0.000000e+000 -0.000000e+000 8.000000e-001
    outer loop
      vertex   1.000000e+001 -7.000000e+000 -3.000000e+001
      vertex   2.000000e+001 1.300000e+001 -3.000000e+001
      vertex   0.000000e+000 1.300000e+001 -3.000000e+001
    endloop
  endfacet
  facet normal 0.000000e+000 0.000000e+000 8.944272e-001
    outer loop
      vertex   1.000000e+001 -7.000000e+000 -3.000000e+001
      vertex   0.000000e+000 1.300000e+001 -3.000000e+001
      vertex   0.000000e+000 -7.000000e+000 -3.000000e+001
    endloop
  endfacet
  facet normal 0.000000e+000 1.000000e+000 0.000000e+000
    outer loop
      vertex   1.000000e+001 -7.000000e+000 3.000000e+001
      vertex   1.000000e+001 -7.000000e+000 5.000000e+000
      vertex   0.000000e+000 -7.000000e+000 3.000000e+001
    endloop
  endfacet
  facet normal 0.000000e+000 3.713907e-001 0.000000e+000
    outer loop
      vertex   0.000000e+000 -7.000000e+000 3.000000e+001
      vertex   1.000000e+001 -7.000000e+000 5.000000e+000
      vertex   0.000000e+000 -7.000000e+000 5.000000e+000
    endloop
  endfacet
  facet normal -0.000000e+000 1.000000e+000 0.000000e+000
    outer loop
      vertex   0.000000e+000 1.300000e+001 4.000000e+001
      vertex   2.000000e+001 1.300000e+001 4.000000e+001
      vertex   0.000000e+000 1.300000e+001 3.000000e+001
    endloop
  endfacet
  facet normal 0.000000e+000 4.472136e-001 0.000000e+000
    outer loop
      vertex   0.000000e+000 1.300000e+001 3.000000e+001
      vertex   2.000000e+001 1.300000e+001 4.000000e+001
      vertex   2.000000e+001 1.300000e+001 3.000000e+001
    endloop
  endfacet
  facet normal 0.000000e+000 -0.000000e+000 1.000000e+000
    outer loop
      vertex   2.000000e+001 -7.000000e+000 4.000000e+001
      vertex   2.000000e+001 1.300000e+001 4.000000e+001
      vertex   1.000000e+001 -7.000000e+000 4.000000e+001
    endloop
  endfacet
  facet normal 0.000000e+000 -0.000000e+000 8.000000e-001
    outer loop
      vertex   1.000000e+001 -7.000000e+000 4.000000e+001
      vertex   2.000000e+001 1.300000e+001 4.000000e+001
      vertex   0.000000e+000 1.300000e+001 4.000000e+001
    endloop
  endfacet
  facet normal 0.000000e+000 0.000000e+000 9.486833e-001
    outer loop
      vertex   1.000000e+001 -7.000000e+000 4.000000e+001
      vertex   0.000000e+000 1.300000e+001 4.000000e+001
      vertex   0.000000e+000 -1.700000e+001 4.000000e+001
    endloop
  endfacet
  facet normal 0.000000e+000 0.000000e+000 7.071068e-001
    outer loop
      vertex   0.000000e+000 -1.700000e+001 4.000000e+001
      vertex   1.000000e+001 -1.700000e+001 4.000000e+001
      vertex   1.000000e+001 -7.000000e+000 4.000000e+001
    endloop
  endfacet
  facet normal 0.000000e+000 -1.000000e+000 0.000000e+000
    outer loop
      vertex   1.000000e+001 -7.000000e+000 3.000000e+001
      vertex   2.000000e+001 -7.000000e+000 3.000000e+001
      vertex   1.000000e+001 -7.000000e+000 4.000000e+001
    endloop
  endfacet
  facet normal 0.000000e+000 -7.071068e-001 0.000000e+000
    outer loop
      vertex   1.000000e+001 -7.000000e+000 4.000000e+001
      vertex   2.000000e+001 -7.000000e+000 3.000000e+001
      vertex   2.000000e+001 -7.000000e+000 4.000000e+001
    endloop
  endfacet
  facet normal 0.000000e+000 0.000000e+000 -1.000000e+000
    outer loop
      vertex   0.000000e+000 -7.000000e+000 3.000000e+001
      vertex   0.000000e+000 1.300000e+001 3.000000e+001
      vertex   1.000000e+001 -7.000000e+000 3.000000e+001
    endloop
  endfacet
  facet normal 0.000000e+000 0.000000e+000 -8.000000e-001
    outer loop
      vertex   1.000000e+001 -7.000000e+000 3.000000e+001
      vertex   0.000000e+000 1.300000e+001 3.000000e+001
      vertex   2.000000e+001 1.300000e+001 3.000000e+001
    endloop
  endfacet
  facet normal 0.000000e+000 0.000000e+000 -8.944272e-001
    outer loop
      vertex   1.000000e+001 -7.000000e+000 3.000000e+001
      vertex   2.000000e+001 1.300000e+001 3.000000e+001
      vertex   2.000000e+001 -7.000000e+000 3.000000e+001
    endloop
  endfacet
  facet normal 1.000000e+000 0.000000e+000 0.000000e+000
    outer loop
      vertex   2.000000e+001 1.300000e+001 4.000000e+001
      vertex   2.000000e+001 -7.000000e+000 4.000000e+001
      vertex   2.000000e+001 1.300000e+001 3.000000e+001
    endloop
  endfacet
  facet normal 4.472136e-001 0.000000e+000 0.000000e+000
    outer loop
      vertex   2.000000e+001 1.300000e+001 3.000000e+001
      vertex   2.000000e+001 -7.000000e+000 4.000000e+001
      vertex   2.000000e+001 -7.000000e+000 3.000000e+001
    endloop
  endfacet
  facet normal 0.000000e+000 -1.000000e+000 0.000000e+000
    outer loop
      vertex   1.000000e+001 -7.000000e+000 -4.000000e+001
      vertex   2.000000e+001 -7.000000e+000 -4.000000e+001
      vertex   1.000000e+001 -7.000000e+000 -3.000000e+001
    endloop
  endfacet
  facet normal 0.000000e+000 -7.071068e-001 0.000000e+000
    outer loop
      vertex   1.000000e+001 -7.000000e+000 -3.000000e+001
      vertex   2.000000e+001 -7.000000e+000 -4.000000e+001
      vertex   2.000000e+001 -7.000000e+000 -3.000000e+001
    endloop
  endfacet
  facet normal 0.000000e+000 0.000000e+000 -7.071068e-001
    outer loop
      vertex   0.000000e+000 -1.700000e+001 -4.000000e+001
      vertex   0.000000e+000 1.300000e+001 -4.000000e+001
      vertex   1.000000e+001 -7.000000e+000 -4.000000e+001
    endloop
  endfacet
  facet normal 0.000000e+000 0.000000e+000 -8.000000e-001
    outer loop
      vertex   1.000000e+001 -7.000000e+000 -4.000000e+001
      vertex   0.000000e+000 1.300000e+001 -4.000000e+001
      vertex   2.000000e+001 1.300000e+001 -4.000000e+001
    endloop
  endfacet
  facet normal 0.000000e+000 0.000000e+000 -8.944272e-001
    outer loop
      vertex   1.000000e+001 -7.000000e+000 -4.000000e+001
      vertex   2.000000e+001 1.300000e+001 -4.000000e+001
      vertex   2.000000e+001 -7.000000e+000 -4.000000e+001
    endloop
  endfacet
  facet normal 0.000000e+000 -0.000000e+000 -7.071068e-001
    outer loop
      vertex   1.000000e+001 -7.000000e+000 -4.000000e+001
      vertex   1.000000e+001 -1.700000e+001 -4.000000e+001
      vertex   0.000000e+000 -1.700000e+001 -4.000000e+001
    endloop
  endfacet
  facet normal 1.000000e+000 0.000000e+000 0.000000e+000
    outer loop
      vertex   2.000000e+001 1.300000e+001 -3.000000e+001
      vertex   2.000000e+001 -7.000000e+000 -3.000000e+001
      vertex   2.000000e+001 1.300000e+001 -4.000000e+001
    endloop
  endfacet
  facet normal 4.472136e-001 0.000000e+000 0.000000e+000
    outer loop
      vertex   2.000000e+001 1.300000e+001 -4.000000e+001
      vertex   2.000000e+001 -7.000000e+000 -3.000000e+001
      vertex   2.000000e+001 -7.000000e+000 -4.000000e+001
    endloop
  endfacet
  facet normal 0.000000e+000 1.000000e+000 -0.000000e+000
    outer loop
      vertex   1.000000e+001 1.300000e+001 -5.000000e+000
      vertex   0.000000e+000 1.300000e+001 -5.000000e+000
      vertex   1.000000e+001 1.300000e+001 5.000000e+000
    endloop
  endfacet
  facet normal 0.000000e+000 7.071068e-001 0.000000e+000
    outer loop
      vertex   1.000000e+001 1.300000e+001 5.000000e+000
      vertex   0.000000e+000 1.300000e+001 -5.000000e+000
      vertex   0.000000e+000 1.300000e+001 5.000000e+000
    endloop
  endfacet
  facet normal -0.000000e+000 0.000000e+000 1.000000e+000
    outer loop
      vertex   0.000000e+000 1.300000e+001 5.000000e+000
      vertex   0.000000e+000 -7.000000e+000 5.000000e+000
      vertex   1.000000e+001 1.300000e+001 5.000000e+000
    endloop
  endfacet
  facet normal 0.000000e+000 0.000000e+000 4.472136e-001
    outer loop
      vertex   1.000000e+001 1.300000e+001 5.000000e+000
      vertex   0.000000e+000 -7.000000e+000 5.000000e+000
      vertex   1.000000e+001 -7.000000e+000 5.000000e+000
    endloop
  endfacet
  facet normal -0.000000e+000 -0.000000e+000 -1.000000e+000
    outer loop
      vertex   1.000000e+001 1.300000e+001 -5.000000e+000
      vertex   1.000000e+001 -7.000000e+000 -5.000000e+000
      vertex   0.000000e+000 1.300000e+001 -5.000000e+000
    endloop
  endfacet
  facet normal 0.000000e+000 0.000000e+000 -4.472136e-001
    outer loop
      vertex   0.000000e+000 1.300000e+001 -5.000000e+000
      vertex   1.000000e+001 -7.000000e+000 -5.000000e+000
      vertex   0.000000e+000 -7.000000e+000 -5.000000e+000
    endloop
  endfacet
  facet normal 0.000000e+000 1.000000e+000 0.000000e+000
    outer loop
      vertex   0.000000e+000 -7.000000e+000 -3.000000e+001
      vertex   0.000000e+000 -7.000000e+000 -5.000000e+000
      vertex   1.000000e+001 -7.000000e+000 -3.000000e+001
    endloop
  endfacet
  facet normal 0.000000e+000 3.713907e-001 -0.000000e+000
    outer loop
      vertex   1.000000e+001 -7.000000e+000 -3.000000e+001
      vertex   0.000000e+000 -7.000000e+000 -5.000000e+000
      vertex   1.000000e+001 -7.000000e+000 -5.000000e+000
    endloop
  endfacet
  facet normal 0.000000e+000 -1.000000e+000 0.000000e+000
    outer loop
      vertex   0.000000e+000 -1.700000e+001 4.000000e+001
      vertex   0.000000e+000 -1.700000e+001 1.776357e-014
      vertex   1.000000e+001 -1.700000e+001 4.000000e+001
    endloop
  endfacet
  facet normal 0.000000e+000 -2.425356e-001 -0.000000e+000
    outer loop
      vertex   1.000000e+001 -1.700000e+001 4.000000e+001
      vertex   0.000000e+000 -1.700000e+001 1.776357e-014
      vertex   1.000000e+001 -1.700000e+001 1.421085e-014
    endloop
  endfacet
  facet normal -0.000000e+000 -9.701425e-001 0.000000e+000
    outer loop
      vertex   1.000000e+001 -1.700000e+001 1.421085e-014
      vertex   0.000000e+000 -1.700000e+001 1.776357e-014
      vertex   0.000000e+000 -1.700000e+001 -4.000000e+001
    endloop
  endfacet
  facet normal 0.000000e+000 -2.425356e-001 -0.000000e+000
    outer loop
      vertex   1.000000e+001 -1.700000e+001 1.421085e-014
      vertex   0.000000e+000 -1.700000e+001 -4.000000e+001
      vertex   1.000000e+001 -1.700000e+001 -4.000000e+001
    endloop
  endfacet
  facet normal -8.944272e-001 -0.000000e+000 0.000000e+000
    outer loop
      vertex   0.000000e+000 -7.000000e+000 5.000000e+000
      vertex   0.000000e+000 -1.700000e+001 1.776357e-014
      vertex   0.000000e+000 -7.000000e+000 3.000000e+001
    endloop
  endfacet
  facet normal -8.944272e-001 -0.000000e+000 0.000000e+000
    outer loop
      vertex   0.000000e+000 -7.000000e+000 3.000000e+001
      vertex   0.000000e+000 -1.700000e+001 1.776357e-014
      vertex   0.000000e+000 -1.700000e+001 4.000000e+001
    endloop
  endfacet
  facet normal -9.486833e-001 0.000000e+000 0.000000e+000
    outer loop
      vertex   0.000000e+000 -7.000000e+000 3.000000e+001
      vertex   0.000000e+000 -1.700000e+001 4.000000e+001
      vertex   0.000000e+000 1.300000e+001 4.000000e+001
    endloop
  endfacet
  facet normal -1.000000e+000 -0.000000e+000 -0.000000e+000
    outer loop
      vertex   0.000000e+000 1.300000e+001 5.000000e+000
      vertex   0.000000e+000 1.300000e+001 -5.000000e+000
      vertex   0.000000e+000 -7.000000e+000 5.000000e+000
    endloop
  endfacet
  facet normal -8.944272e-001 0.000000e+000 0.000000e+000
    outer loop
      vertex   0.000000e+000 -7.000000e+000 5.000000e+000
      vertex   0.000000e+000 1.300000e+001 -5.000000e+000
      vertex   0.000000e+000 -7.000000e+000 -5.000000e+000
    endloop
  endfacet
  facet normal -8.944272e-001 0.000000e+000 -0.000000e+000
    outer loop
      vertex   0.000000e+000 -7.000000e+000 5.000000e+000
      vertex   0.000000e+000 -7.000000e+000 -5.000000e+000
      vertex   0.000000e+000 -1.700000e+001 1.776357e-014
    endloop
  endfacet
  facet normal -7.071068e-001 0.000000e+000 0.000000e+000
    outer loop
      vertex   0.000000e+000 -1.700000e+001 1.776357e-014
      vertex   0.000000e+000 -7.000000e+000 -5.000000e+000
      vertex   0.000000e+000 -7.000000e+000 -3.000000e+001
    endloop
  endfacet
  facet normal -3.162278e-001 0.000000e+000 0.000000e+000
    outer loop
      vertex   0.000000e+000 -1.700000e+001 1.776357e-014
      vertex   0.000000e+000 -7.000000e+000 -3.000000e+001
      vertex   0.000000e+000 -1.700000e+001 -4.000000e+001
    endloop
  endfacet
  facet normal -7.071068e-001 0.000000e+000 0.000000e+000
    outer loop
      vertex   0.000000e+000 -1.700000e+001 -4.000000e+001
      vertex   0.000000e+000 -7.000000e+000 -3.000000e+001
      vertex   0.000000e+000 1.300000e+001 -4.000000e+001
    endloop
  endfacet
  facet normal -8.944272e-001 0.000000e+000 0.000000e+000
    outer loop
      vertex   0.000000e+000 1.300000e+001 -4.000000e+001
      vertex   0.000000e+000 -7.000000e+000 -3.000000e+001
      vertex   0.000000e+000 1.300000e+001 -3.000000e+001
    endloop
  endfacet
  facet normal -8.944272e-001 0.000000e+000 -0.000000e+000
    outer loop
      vertex   0.000000e+000 1.300000e+001 4.000000e+001
      vertex   0.000000e+000 1.300000e+001 3.000000e+001
      vertex   0.000000e+000 -7.000000e+000 3.000000e+001
    endloop
  endfacet
  facet normal 1.000000e+000 0.000000e+000 0.000000e+000
    outer loop
      vertex   1.000000e+001 -7.000000e+000 4.000000e+001
      vertex   1.000000e+001 -1.700000e+001 4.000000e+001
      vertex   1.000000e+001 -7.000000e+000 3.000000e+001
    endloop
  endfacet
  facet normal 8.944272e-001 0.000000e+000 0.000000e+000
    outer loop
      vertex   1.000000e+001 -7.000000e+000 3.000000e+001
      vertex   1.000000e+001 -1.700000e+001 4.000000e+001
      vertex   1.000000e+001 -1.700000e+001 1.421085e-014
    endloop
  endfacet
  facet normal 3.162278e-001 0.000000e+000 0.000000e+000
    outer loop
      vertex   1.000000e+001 -7.000000e+000 3.000000e+001
      vertex   1.000000e+001 -1.700000e+001 1.421085e-014
      vertex   1.000000e+001 -7.000000e+000 5.000000e+000
    endloop
  endfacet
  facet normal 8.944272e-001 0.000000e+000 0.000000e+000
    outer loop
      vertex   1.000000e+001 -7.000000e+000 5.000000e+000
      vertex   1.000000e+001 -1.700000e+001 1.421085e-014
      vertex   1.000000e+001 -7.000000e+000 -5.000000e+000
    endloop
  endfacet
  facet normal 1.000000e+000 -0.000000e+000 0.000000e+000
    outer loop
      vertex   1.000000e+001 -7.000000e+000 5.000000e+000
      vertex   1.000000e+001 -7.000000e+000 -5.000000e+000
      vertex   1.000000e+001 1.300000e+001 5.000000e+000
    endloop
  endfacet
  facet normal 8.944272e-001 0.000000e+000 0.000000e+000
    outer loop
      vertex   1.000000e+001 1.300000e+001 5.000000e+000
      vertex   1.000000e+001 -7.000000e+000 -5.000000e+000
      vertex   1.000000e+001 1.300000e+001 -5.000000e+000
    endloop
  endfacet
  facet normal 8.944272e-001 0.000000e+000 0.000000e+000
    outer loop
      vertex   1.000000e+001 -7.000000e+000 -5.000000e+000
      vertex   1.000000e+001 -1.700000e+001 1.421085e-014
      vertex   1.000000e+001 -7.000000e+000 -3.000000e+001
    endloop
  endfacet
  facet normal 8.944272e-001 0.000000e+000 0.000000e+000
    outer loop
      vertex   1.000000e+001 -7.000000e+000 -3.000000e+001
      vertex   1.000000e+001 -1.700000e+001 1.421085e-014
      vertex   1.000000e+001 -1.700000e+001 -4.000000e+001
    endloop
  endfacet
  facet normal 7.071068e-001 0.000000e+000 0.000000e+000
    outer loop
      vertex   1.000000e+001 -7.000000e+000 -3.000000e+001
      vertex   1.000000e+001 -1.700000e+001 -4.000000e+001
      vertex   1.000000e+001 -7.000000e+000 -4.000000e+001
    endloop
  endfacet
  facet normal 0.000000e+000 0.000000e+000 -1.000000e+000
    outer loop
      vertex   -4.300000e+001 -6.500000e+001 -4.000000e+001
      vertex   -5.300000e+001 -6.500000e+001 -4.000000e+001
      vertex   -4.300000e+001 -5.500000e+001 -4.000000e+001
    endloop
  endfacet
  facet normal -0.000000e+000 0.000000e+000 -7.071068e-001
    outer loop
      vertex   -4.300000e+001 -5.500000e+001 -4.000000e+001
      vertex   -5.300000e+001 -6.500000e+001 -4.000000e+001
      vertex   -5.300000e+001 -5.500000e+001 -4.000000e+001
    endloop
  endfacet
  facet normal 0.000000e+000 -1.000000e+000 0.000000e+000
    outer loop
      vertex   -5.300000e+001 -6.500000e+001 1.554312e-014
      vertex   -5.300000e+001 -6.500000e+001 -4.000000e+001
      vertex   -4.300000e+001 -6.500000e+001 1.554312e-014
    endloop
  endfacet
  facet normal 0.000000e+000 -2.425356e-001 -0.000000e+000
    outer loop
      vertex   -4.300000e+001 -6.500000e+001 1.554312e-014
      vertex   -5.300000e+001 -6.500000e+001 -4.000000e+001
      vertex   -4.300000e+001 -6.500000e+001 -4.000000e+001
    endloop
  endfacet
  facet normal 0.000000e+000 1.000000e+000 -0.000000e+000
    outer loop
      vertex   -4.300000e+001 -5.500000e+001 -4.000000e+001
      vertex   -5.300000e+001 -5.500000e+001 -4.000000e+001
      vertex   -4.300000e+001 -5.500000e+001 1.443290e-014
    endloop
  endfacet
  facet normal 0.000000e+000 9.701425e-001 0.000000e+000
    outer loop
      vertex   -4.300000e+001 -5.500000e+001 1.443290e-014
      vertex   -5.300000e+001 -5.500000e+001 -4.000000e+001
      vertex   -5.300000e+001 -5.500000e+001 1.554312e-014
    endloop
  endfacet
  facet normal 0.000000e+000 0.000000e+000 1.000000e+000
    outer loop
      vertex   -4.300000e+001 -7.500000e+001 4.000000e+001
      vertex   -5.300000e+001 -7.500000e+001 4.000000e+001
      vertex   -4.300000e+001 -8.500000e+001 4.000000e+001
    endloop
  endfacet
  facet normal 0.000000e+000 0.000000e+000 7.071068e-001
    outer loop
      vertex   -4.300000e+001 -8.500000e+001 4.000000e+001
      vertex   -5.300000e+001 -7.500000e+001 4.000000e+001
      vertex   -5.300000e+001 -8.500000e+001 4.000000e+001
    endloop
  endfacet
  facet normal 4.965068e-017 8.944272e-001 4.472136e-001
    outer loop
      vertex   -5.300000e+001 -5.500000e+001 1.554312e-014
      vertex   -5.300000e+001 -7.500000e+001 4.000000e+001
      vertex   -4.300000e+001 -5.500000e+001 1.443290e-014
    endloop
  endfacet
  facet normal 0.000000e+000 1.951800e-001 9.759001e-002
    outer loop
      vertex   -4.300000e+001 -5.500000e+001 1.443290e-014
      vertex   -5.300000e+001 -7.500000e+001 4.000000e+001
      vertex   -4.300000e+001 -7.500000e+001 4.000000e+001
    endloop
  endfacet
  facet normal -8.944272e-001 0.000000e+000 0.000000e+000
    outer loop
      vertex   -5.300000e+001 -8.500000e+001 4.000000e+001
      vertex   -5.300000e+001 -7.500000e+001 4.000000e+001
      vertex   -5.300000e+001 -6.500000e+001 1.554312e-014
    endloop
  endfacet
  facet normal -9.701425e-001 0.000000e+000 0.000000e+000
    outer loop
      vertex   -5.300000e+001 -6.500000e+001 1.554312e-014
      vertex   -5.300000e+001 -7.500000e+001 4.000000e+001
      vertex   -5.300000e+001 -5.500000e+001 1.554312e-014
    endloop
  endfacet
  facet normal -9.701425e-001 0.000000e+000 0.000000e+000
    outer loop
      vertex   -5.300000e+001 -6.500000e+001 1.554312e-014
      vertex   -5.300000e+001 -5.500000e+001 1.554312e-014
      vertex   -5.300000e+001 -5.500000e+001 -4.000000e+001
    endloop
  endfacet
  facet normal -9.701425e-001 0.000000e+000 0.000000e+000
    outer loop
      vertex   -5.300000e+001 -5.500000e+001 -4.000000e+001
      vertex   -5.300000e+001 -6.500000e+001 -4.000000e+001
      vertex   -5.300000e+001 -6.500000e+001 1.554312e-014
    endloop
  endfacet
  facet normal -0.000000e+000 -8.944272e-001 -4.472136e-001
    outer loop
      vertex   -4.300000e+001 -6.500000e+001 1.554312e-014
      vertex   -4.300000e+001 -8.500000e+001 4.000000e+001
      vertex   -5.300000e+001 -6.500000e+001 1.554312e-014
    endloop
  endfacet
  facet normal 0.000000e+000 -1.951800e-001 -9.759001e-002
    outer loop
      vertex   -5.300000e+001 -6.500000e+001 1.554312e-014
      vertex   -4.300000e+001 -8.500000e+001 4.000000e+001
      vertex   -5.300000e+001 -8.500000e+001 4.000000e+001
    endloop
  endfacet
  facet normal 2.169305e-001 0.000000e+000 0.000000e+000
    outer loop
      vertex   -4.300000e+001 -7.500000e+001 4.000000e+001
      vertex   -4.300000e+001 -6.500000e+001 1.554312e-014
      vertex   -4.300000e+001 -5.500000e+001 1.443290e-014
    endloop
  endfacet
  facet normal 9.701425e-001 0.000000e+000 0.000000e+000
    outer loop
      vertex   -4.300000e+001 -5.500000e+001 1.443290e-014
      vertex   -4.300000e+001 -6.500000e+001 1.554312e-014
      vertex   -4.300000e+001 -6.500000e+001 -4.000000e+001
    endloop
  endfacet
  facet normal 2.425356e-001 0.000000e+000 0.000000e+000
    outer loop
      vertex   -4.300000e+001 -5.500000e+001 1.443290e-014
      vertex   -4.300000e+001 -6.500000e+001 -4.000000e+001
      vertex   -4.300000e+001 -5.500000e+001 -4.000000e+001
    endloop
  endfacet
  facet normal 9.701425e-001 0.000000e+000 0.000000e+000
    outer loop
      vertex   -4.300000e+001 -7.500000e+001 4.000000e+001
      vertex   -4.300000e+001 -8.500000e+001 4.000000e+001
      vertex   -4.300000e+001 -6.500000e+001 1.554312e-014
    endloop
  endfacet
  facet normal 0.000000e+000 0.000000e+000 -1.000000e+000
    outer loop
      vertex   -2.600000e+001 -6.500000e+001 -4.000000e+001
      vertex   -3.600000e+001 -6.500000e+001 -4.000000e+001
      vertex   -2.600000e+001 -5.500000e+001 -4.000000e+001
    endloop
  endfacet
  facet normal -0.000000e+000 0.000000e+000 -7.071068e-001
    outer loop
      vertex   -2.600000e+001 -5.500000e+001 -4.000000e+001
      vertex   -3.600000e+001 -6.500000e+001 -4.000000e+001
      vertex   -3.600000e+001 -5.500000e+001 -4.000000e+001
    endloop
  endfacet
  facet normal 0.000000e+000 -9.922779e-001 0.000000e+000
    outer loop
      vertex   -4.100000e+001 -6.500000e+001 1.554312e-014
      vertex   -3.600000e+001 -6.500000e+001 -4.000000e+001
      vertex   -3.100000e+001 -6.500000e+001 1.554312e-014
    endloop
  endfacet
  facet normal 0.000000e+000 -2.461538e-001 -0.000000e+000
    outer loop
      vertex   -3.100000e+001 -6.500000e+001 1.554312e-014
      vertex   -3.600000e+001 -6.500000e+001 -4.000000e+001
      vertex   -2.600000e+001 -6.500000e+001 -4.000000e+001
    endloop
  endfacet
  facet normal -9.922779e-001 -6.885311e-018 -1.240347e-001
    outer loop
      vertex   -4.100000e+001 -5.500000e+001 1.498801e-014
      vertex   -3.600000e+001 -5.500000e+001 -4.000000e+001
      vertex   -4.100000e+001 -6.500000e+001 1.554312e-014
    endloop
  endfacet
  facet normal -2.389124e-001 0.000000e+000 -2.986405e-002
    outer loop
      vertex   -4.100000e+001 -6.500000e+001 1.554312e-014
      vertex   -3.600000e+001 -5.500000e+001 -4.000000e+001
      vertex   -3.600000e+001 -6.500000e+001 -4.000000e+001
    endloop
  endfacet
  facet normal 0.000000e+000 9.922779e-001 0.000000e+000
    outer loop
      vertex   -2.600000e+001 -5.500000e+001 -4.000000e+001
      vertex   -3.600000e+001 -5.500000e+001 -4.000000e+001
      vertex   -3.100000e+001 -5.500000e+001 1.554312e-014
    endloop
  endfacet
  facet normal 0.000000e+000 9.922779e-001 0.000000e+000
    outer loop
      vertex   -3.100000e+001 -5.500000e+001 1.554312e-014
      vertex   -3.600000e+001 -5.500000e+001 -4.000000e+001
      vertex   -4.100000e+001 -5.500000e+001 1.498801e-014
    endloop
  endfacet
  facet normal 9.922779e-001 -0.000000e+000 1.240347e-001
    outer loop
      vertex   -3.100000e+001 -6.500000e+001 1.554312e-014
      vertex   -2.600000e+001 -6.500000e+001 -4.000000e+001
      vertex   -3.100000e+001 -5.500000e+001 1.554312e-014
    endloop
  endfacet
  facet normal 2.389124e-001 0.000000e+000 2.986405e-002
    outer loop
      vertex   -3.100000e+001 -5.500000e+001 1.554312e-014
      vertex   -2.600000e+001 -6.500000e+001 -4.000000e+001
      vertex   -2.600000e+001 -5.500000e+001 -4.000000e+001
    endloop
  endfacet
  facet normal -2.425356e-001 0.000000e+000 0.000000e+000
    outer loop
      vertex   -2.600000e+001 -5.500000e+001 -4.000000e+001
      vertex   -2.600000e+001 -6.500000e+001 1.776357e-014
      vertex   -2.600000e+001 -5.500000e+001 1.776357e-014
    endloop
  endfacet
  facet normal -9.701425e-001 0.000000e+000 0.000000e+000
    outer loop
      vertex   -2.600000e+001 -5.500000e+001 1.776357e-014
      vertex   -2.600000e+001 -6.500000e+001 1.776357e-014
      vertex   -2.600000e+001 -4.500000e+001 4.000000e+001
    endloop
  endfacet
  facet normal -2.169305e-001 0.000000e+000 0.000000e+000
    outer loop
      vertex   -2.600000e+001 -5.500000e+001 1.776357e-014
      vertex   -2.600000e+001 -4.500000e+001 4.000000e+001
      vertex   -2.600000e+001 -3.500000e+001 4.000000e+001
    endloop
  endfacet
  facet normal -9.701425e-001 0.000000e+000 0.000000e+000
    outer loop
      vertex   -2.600000e+001 -5.500000e+001 -4.000000e+001
      vertex   -2.600000e+001 -6.500000e+001 -4.000000e+001
      vertex   -2.600000e+001 -6.500000e+001 1.776357e-014
    endloop
  endfacet
  facet normal 0.000000e+000 0.000000e+000 1.000000e+000
    outer loop
      vertex   -1.600000e+001 -3.500000e+001 4.000000e+001
      vertex   -2.600000e+001 -3.500000e+001 4.000000e+001
      vertex   -1.600000e+001 -4.500000e+001 4.000000e+001
    endloop
  endfacet
  facet normal 0.000000e+000 0.000000e+000 7.071068e-001
    outer loop
      vertex   -1.600000e+001 -4.500000e+001 4.000000e+001
      vertex   -2.600000e+001 -3.500000e+001 4.000000e+001
      vertex   -2.600000e+001 -4.500000e+001 4.000000e+001
    endloop
  endfacet
  facet normal 0.000000e+000 -8.944272e-001 4.472136e-001
    outer loop
      vertex   -2.600000e+001 -4.500000e+001 4.000000e+001
      vertex   -2.600000e+001 -6.500000e+001 1.776357e-014
      vertex   -1.600000e+001 -4.500000e+001 4.000000e+001
    endloop
  endfacet
  facet normal 0.000000e+000 -1.951800e-001 9.759001e-002
    outer loop
      vertex   -1.600000e+001 -4.500000e+001 4.000000e+001
      vertex   -2.600000e+001 -6.500000e+001 1.776357e-014
      vertex   -1.600000e+001 -6.500000e+001 1.776357e-014
    endloop
  endfacet
  facet normal 0.000000e+000 8.944272e-001 -4.472136e-001
    outer loop
      vertex   -1.600000e+001 -3.500000e+001 4.000000e+001
      vertex   -1.600000e+001 -5.500000e+001 1.776357e-014
      vertex   -2.600000e+001 -3.500000e+001 4.000000e+001
    endloop
  endfacet
  facet normal 0.000000e+000 1.951800e-001 -9.759001e-002
    outer loop
      vertex   -2.600000e+001 -3.500000e+001 4.000000e+001
      vertex   -1.600000e+001 -5.500000e+001 1.776357e-014
      vertex   -2.600000e+001 -5.500000e+001 1.776357e-014
    endloop
  endfacet
  facet normal 0.000000e+000 0.000000e+000 -1.000000e+000
    outer loop
      vertex   -1.600000e+001 -6.500000e+001 -4.000000e+001
      vertex   -2.600000e+001 -6.500000e+001 -4.000000e+001
      vertex   -1.600000e+001 -5.500000e+001 -4.000000e+001
    endloop
  endfacet
  facet normal -0.000000e+000 0.000000e+000 -7.071068e-001
    outer loop
      vertex   -1.600000e+001 -5.500000e+001 -4.000000e+001
      vertex   -2.600000e+001 -6.500000e+001 -4.000000e+001
      vertex   -2.600000e+001 -5.500000e+001 -4.000000e+001
    endloop
  endfacet
  facet normal 0.000000e+000 -1.000000e+000 0.000000e+000
    outer loop
      vertex   -2.600000e+001 -6.500000e+001 1.776357e-014
      vertex   -2.600000e+001 -6.500000e+001 -4.000000e+001
      vertex   -1.600000e+001 -6.500000e+001 1.776357e-014
    endloop
  endfacet
  facet normal 0.000000e+000 -2.425356e-001 -0.000000e+000
    outer loop
      vertex   -1.600000e+001 -6.500000e+001 1.776357e-014
      vertex   -2.600000e+001 -6.500000e+001 -4.000000e+001
      vertex   -1.600000e+001 -6.500000e+001 -4.000000e+001
    endloop
  endfacet
  facet normal 0.000000e+000 1.000000e+000 0.000000e+000
    outer loop
      vertex   -1.600000e+001 -5.500000e+001 1.776357e-014
      vertex   -1.600000e+001 -5.500000e+001 -4.000000e+001
      vertex   -2.600000e+001 -5.500000e+001 1.776357e-014
    endloop
  endfacet
  facet normal 0.000000e+000 2.425356e-001 0.000000e+000
    outer loop
      vertex   -2.600000e+001 -5.500000e+001 1.776357e-014
      vertex   -1.600000e+001 -5.500000e+001 -4.000000e+001
      vertex   -2.600000e+001 -5.500000e+001 -4.000000e+001
    endloop
  endfacet
  facet normal 2.169305e-001 0.000000e+000 0.000000e+000
    outer loop
      vertex   -1.600000e+001 -4.500000e+001 4.000000e+001
      vertex   -1.600000e+001 -6.500000e+001 1.776357e-014
      vertex   -1.600000e+001 -5.500000e+001 1.776357e-014
    endloop
  endfacet
  facet normal 9.701425e-001 0.000000e+000 0.000000e+000
    outer loop
      vertex   -1.600000e+001 -5.500000e+001 1.776357e-014
      vertex   -1.600000e+001 -6.500000e+001 1.776357e-014
      vertex   -1.600000e+001 -6.500000e+001 -4.000000e+001
    endloop
  endfacet
  facet normal 2.425356e-001 0.000000e+000 0.000000e+000
    outer loop
      vertex   -1.600000e+001 -5.500000e+001 1.776357e-014
      vertex   -1.600000e+001 -6.500000e+001 -4.000000e+001
      vertex   -1.600000e+001 -5.500000e+001 -4.000000e+001
    endloop
  endfacet
  facet normal 2.169305e-001 0.000000e+000 0.000000e+000
    outer loop
      vertex   -1.600000e+001 -5.500000e+001 1.776357e-014
      vertex   -1.600000e+001 -3.500000e+001 4.000000e+001
      vertex   -1.600000e+001 -4.500000e+001 4.000000e+001
    endloop
  endfacet
  facet normal 0.000000e+000 0.000000e+000 1.000000e+000
    outer loop
      vertex   -3.300000e+001 -7.500000e+001 4.000000e+001
      vertex   -4.300000e+001 -7.500000e+001 4.000000e+001
      vertex   -3.300000e+001 -8.500000e+001 4.000000e+001
    endloop
  endfacet
  facet normal 0.000000e+000 0.000000e+000 7.071068e-001
    outer loop
      vertex   -3.300000e+001 -8.500000e+001 4.000000e+001
      vertex   -4.300000e+001 -7.500000e+001 4.000000e+001
      vertex   -4.300000e+001 -8.500000e+001 4.000000e+001
    endloop
  endfacet
  facet normal -0.000000e+000 8.935341e-001 4.467671e-001
    outer loop
      vertex   -4.300000e+001 -7.500000e+001 4.000000e+001
      vertex   -3.300000e+001 -7.500000e+001 4.000000e+001
      vertex   -4.100000e+001 -5.500000e+001 1.498801e-014
    endloop
  endfacet
  facet normal -2.443742e-017 8.804509e-001 4.402255e-001
    outer loop
      vertex   -4.100000e+001 -5.500000e+001 1.498801e-014
      vertex   -3.300000e+001 -7.500000e+001 4.000000e+001
      vertex   -3.100000e+001 -5.500000e+001 1.554312e-014
    endloop
  endfacet
  facet normal -8.935341e-001 0.000000e+000 -4.467671e-002
    outer loop
      vertex   -4.300000e+001 -8.500000e+001 4.000000e+001
      vertex   -4.300000e+001 -7.500000e+001 4.000000e+001
      vertex   -4.100000e+001 -6.500000e+001 1.554312e-014
    endloop
  endfacet
  facet normal -9.690031e-001 -2.689524e-018 -4.845016e-002
    outer loop
      vertex   -4.100000e+001 -6.500000e+001 1.554312e-014
      vertex   -4.300000e+001 -7.500000e+001 4.000000e+001
      vertex   -4.100000e+001 -5.500000e+001 1.498801e-014
    endloop
  endfacet
  facet normal -0.000000e+000 -8.935341e-001 -4.467671e-001
    outer loop
      vertex   -3.100000e+001 -6.500000e+001 1.554312e-014
      vertex   -3.300000e+001 -8.500000e+001 4.000000e+001
      vertex   -4.100000e+001 -6.500000e+001 1.554312e-014
    endloop
  endfacet
  facet normal 0.000000e+000 -1.966782e-001 -9.833911e-002
    outer loop
      vertex   -4.100000e+001 -6.500000e+001 1.554312e-014
      vertex   -3.300000e+001 -8.500000e+001 4.000000e+001
      vertex   -4.300000e+001 -8.500000e+001 4.000000e+001
    endloop
  endfacet
  facet normal 8.935341e-001 0.000000e+000 4.467671e-002
    outer loop
      vertex   -3.100000e+001 -5.500000e+001 1.554312e-014
      vertex   -3.300000e+001 -7.500000e+001 4.000000e+001
      vertex   -3.100000e+001 -6.500000e+001 1.554312e-014
    endloop
  endfacet
  facet normal 2.164593e-001 0.000000e+000 1.082297e-002
    outer loop
      vertex   -3.100000e+001 -6.500000e+001 1.554312e-014
      vertex   -3.300000e+001 -7.500000e+001 4.000000e+001
      vertex   -3.300000e+001 -8.500000e+001 4.000000e+001
    endloop
  endfacet
endsolid
